<svg xmlns="http://www.w3.org/2000/svg" viewBox="0 0 800 520" role="img" aria-labelledby="t d"><title id="t">Sticker Treasure Route</title><desc id="d">A hand-drawn map has a bright sticker road connecting three room landmarks.</desc><rect width="800" height="520" rx="36" fill="#fff7df"/><text x="55" y="72" fill="#214e34" font-family="Arial,sans-serif" font-size="40" font-weight="700">Sticker treasure route</text><text x="58" y="108" fill="#765e49" font-family="Arial,sans-serif" font-size="22">Design • follow • deliver</text><path d="M110 156q145-27 291 4 144-31 289-4v294q-145-27-289 4-146-31-291-4Z" fill="#fffdf5" stroke="#254f38" stroke-width="8"/><path d="M177 360c74-164 170 34 250-89 58-90 116 50 194-56" fill="none" stroke="#e56c4d" stroke-width="18" stroke-linecap="round" stroke-dasharray="2 32"/><g fill="#f1bd48" stroke="#254f38" stroke-width="6"><circle cx="175" cy="361" r="27"/><circle cx="426" cy="271" r="27"/><circle cx="622" cy="214" r="27"/></g><path d="M160 289h76v58h-76Z" fill="#76ad88" stroke="#254f38" stroke-width="7"/><path d="M148 289l50-49 50 49" fill="#e77754" stroke="#254f38" stroke-width="7"/><rect x="361" y="185" width="116" height="70" rx="12" fill="#91b9d4" stroke="#254f38" stroke-width="7"/><path d="M585 174h78v65h-78Z" fill="#e5ad47" stroke="#254f38" stroke-width="7"/><path d="M604 174v-34h40v34" fill="none" stroke="#254f38" stroke-width="7"/></svg>
